<?xml version="1.0" encoding="utf-8"?>
<!-- Generator: Adobe Illustrator 22.1.0, SVG Export Plug-In . SVG Version: 6.00 Build 0)  -->
<svg version="1.1" id="Layer_1" xmlns="http://www.w3.org/2000/svg" xmlns:xlink="http://www.w3.org/1999/xlink" x="0px" y="0px"
	 viewBox="0 0 2000 2000" style="enable-background:new 0 0 2000 2000;" xml:space="preserve">
<style type="text/css">
	.st0{fill:#FFC432;}
	.st1{fill:#EEB124;}
	.st2{fill:#986C29;}
</style>
<path d="M911.3,1766.6c-241,1.7-448.9-78.9-620.8-249.3c-24.8-24.6-47.8-50.6-67.9-79.1c-37.8-53.8-37.4-82.8,7.5-130.3
	c17.7-18.7,14.2-26.2-3-41.9c-86.6-79.1-148.6-175.8-195.7-282.6c-5.8-13.1-9-27.4-13.7-41c-26.5-77.5,43.7-118,97.9-118.1
	c7.2,0,14.9,3.5,21.5,7.1C380.6,966.4,638.8,988.9,907,930.6c146.3-31.8,284.5-84.5,409.7-168.3c87.2-58.3,153.9-134.8,201-228.4
	c16.2-32.3,42.1-44,86.5-32.9c24,6,28-0.9,29.7-23.2c4.6-62.5-4.1-121.4-34.2-177.2c-15.1-28.1-4.5-44.5,27.1-44.5
	c28.8,0,57.6,1.9,86.5,3.3c32.3,1.6,50.9,19.8,59.8,49.9c10.5,35.7,10.3,72.2,6.5,108.6c-2.7,26.1-6.5,52.2-11.1,78.1
	c-1.9,10.7-1.5,17.2,10.2,21.6c83.9,31.5,131.6,97.9,160.8,177.3c89.8,244.4,56.6,468.5-116,668.2
	c-138.3,160-313.4,262.8-510.4,332.4C1183.1,1741.4,1049,1764.8,911.3,1766.6L911.3,1766.6z M1712.9,729.3c0,9.2,1,18.5-0.2,27.5
	c-3.2,24.4-5.8,49-11.2,72.9c-42.1,187.4-152.4,329.3-302.7,441.8c-167.3,125.3-358.6,190.2-565.4,210.9
	c-155,15.5-305-1.4-446.4-71.5c-10-4.9-19.3-4.5-29.4-0.6c-17,6.6-30.4,18.3-45,28.6c-14.3,10.1-12.5,18.6-0.9,30.3
	c118,119.1,256.9,199.8,423.1,228.4c211.5,36.4,415.7,6.2,614.1-72.5c153.4-60.9,291.7-144.9,405.7-265.5
	c128.1-135.4,199.4-292,175.1-482.8c-10.6-83.3-32-162.9-78.2-234.6c-30.7-47.7-77.9-71.2-126.6-93.7c-17.1-7.9-29.7,6.4-45.7,7
	c-76.1,2.8-59,1-81,68.3c-1,3.2-1.4,6.6-1.8,10c-10.4,80.6-46.8,150-93.4,214.9c-86.4,120.6-198.2,213.6-321.5,293.6
	c-177.7,115.4-370.4,187.5-583.7,198.3c-67.9,3.5-135.8,0.4-203.6-1.7c-7.8-0.2-17.1-4.3-21.6,7.2c-7.7,19.4,2.2,45.2,21.2,52.6
	c43.5,16.9,87.6,32.2,133,43.3c188.9,46.3,374.5,27.2,556.9-32c219.4-71.1,399.2-196.1,524.3-393.7
	C1664,928.2,1695.4,831.4,1712.9,729.3L1712.9,729.3z M1568.4,552.7c-13.6,3.3-15.5,12.8-20.2,19.4c-29.8,42.1-48.2,91.3-84.9,129.4
	c-77.8,81-170.1,139.8-272.2,184.5C969,983.2,738.8,1028.9,496,992.7c-98.9-14.7-192.4-48.3-286.4-80.4c-6.7-2.3-13.3-9.1-21.1-2.2
	c-13.1,11.6-12.3,45.4,1.9,56.7c54,42.9,110.1,82.8,172.3,112.6c184.5,88.3,379.3,112.5,580.9,89.9c53-5.9,109-8.1,155.7-34.8
	c161.2-92.2,302.2-207.7,398.2-370.4C1535.7,699.5,1554,627.8,1568.4,552.7L1568.4,552.7z M1005.1,1181.2c-7.5,0.8-15,1.4-22.4,2.5
	c-130.5,19.2-260.6,16.9-390.1-8c-145-27.8-278.1-82-390.9-179.9c-37.4-32.4-53.3-35-97.4-14.5c-13.7,6.4-17.5,13.3-9.8,27.4
	c54.9,102,122.9,193.1,216.5,263.3c15.4,11.6,31.9,18.7,50.8,21.5c157.2,23.5,311.5,8,463.4-35.9
	C887.8,1239.6,948.5,1216.3,1005.1,1181.2L1005.1,1181.2z M355,1350.5c5.6-10.3,2.6-14.3-6.1-16.4c-20.6-4.9-40.9-10.8-61.5-15.3
	c-13.8-3-22.4,2.8-30.8,15.5c-22.8,34.3-5.9,60.7,13.5,87.4c17.5,24.3,17.6,24,35.9,1.7c4.8-5.8,10.2-12.8,16.8-15.1
	C351.9,1398.1,358.9,1376.2,355,1350.5L355,1350.5z M60.4,898.4c0.6,26.1,6.1,42.9,12.2,59.7c5.6,15.2,8.7,32.1,27.5,9
	c7.4-9.2,20.4-14.3,31.9-13.8c34.9,1.3,33.6-30.1,41.5-48.8c5.5-13.1-18.3-14.5-27.6-23c-5-4.5-11.7-7-16.7-11.4
	c-10.8-9.8-24.9-17.6-36.5-9.1C77.8,871.8,61.1,884.2,60.4,898.4L60.4,898.4z M1722.3,498.7c6-39.6,12.4-78.9,11.7-118.7
	c-0.2-13.5-1.3-27.1-3.7-40.3c-5.7-31.5-39.7-50.2-68.9-39.1c-9,3.4-6.3,8.9-3.9,14C1684.5,373.8,1701.2,436.8,1722.3,498.7
	L1722.3,498.7z"/>
<path class="st0" d="M1744.3,581.1c-19.7-6.4-34.4,11.7-50.7-1.1c9.8,18.7,14.6,37.4,25,61.8
	C1723.5,615.2,1713.7,590.2,1744.3,581.1z M1181.6,1142.5c123.3-80,235-173,321.4-293.5c46.7-65,83-134.4,93.4-215
	c0.4-3.4,0.9-6.8,1.9-10c21.9-67.3,4.9-65.4,81.1-68.3c15.9-0.6,28.4-14.9,45.6-7c48.6,22.5,95.9,46.1,126.5,93.8
	c46.3,71.7,67.7,151.3,78.3,234.5c24.2,190.8-47.1,347.5-175.1,482.9c-114.2,120.6-252.4,204.6-405.8,265.5
	c-198.2,78.7-402.4,108.9-614.1,72.4c-166.2-28.7-305.2-109.3-423-228.4c-11.7-11.7-13.4-20.2,0.9-30.4c14.4-10.2,28-22.1,45-28.7
	c10-3.8,19.3-4.2,29.3,0.6c141.4,70,291.4,87,446.4,71.5c207-20.8,398.2-85.5,565.4-211c150.3-112.5,260.6-254.3,302.7-441.7
	c5.3-24,8.1-48.6,11.2-73c1.3-8.9,0.2-18.3,0.2-27.4c-17.4,102.1-48.8,198.9-104.9,287.2c-125,197.6-304.8,322.6-524.3,393.7
	c-182.3,59-368,78.1-557,31.8c-45.4-11-89.4-26.3-132.9-43.3c-19.1-7.2-29.1-33.1-21.2-52.4c4.5-11.7,13.8-7.6,21.4-7.4
	c67.9,2.1,135.8,5.3,203.8,1.7C811.2,1329.9,1003.9,1258,1181.6,1142.5L1181.6,1142.5z"/>
<path class="st1" d="M1568.3,552.8c-14.2,75.1-32.7,146.9-70.7,211.4c-96.2,162.8-237.1,278.3-398.2,370.4
	c-46.7,26.7-102.7,28.9-155.8,34.8c-201.6,22.5-396.5-1.7-580.9-90c-62.2-29.7-118.2-69.6-172.4-112.5c-14-11.2-14.9-45.2-1.7-56.7
	c7.6-7,14.2-0.2,21,2.1c94,32,187.4,65.6,286.3,80.4c242.8,36.1,472.9-9.6,695.1-106.8c102.1-44.6,194.4-103.6,272.1-184.5
	c36.7-38.2,55.2-87.5,84.9-129.5C1552.8,565.6,1554.7,556,1568.3,552.8L1568.3,552.8z"/>
<path class="st1" d="M592.6,1175.8c129.5,24.8,259.6,27.2,390.1,7.9c7.4-1.1,14.9-1.5,22.3-2.3c-56.5,35-117.2,58.4-179.8,76.4
	c-152,43.9-306.3,59.4-463.6,35.9c-18.9-2.8-35.2-10-50.7-21.4c-93.6-70.3-161.5-161.3-216.5-263.4c-7.6-14-3.8-21,9.8-27.4
	c44.2-20.6,60.1-17.8,97.4,14.4C314.5,1093.7,447.6,1147.8,592.6,1175.8L592.6,1175.8z"/>
<path class="st2" d="M348.9,1334.2c8.7,2.1,11.7,6.2,6.2,16.3c3.8,25.9-3.2,47.8-32.5,57.9c-6.6,2.3-11.9,9.3-16.8,15.1
	c-18.3,22.3-18.3,22.5-35.9-1.7c-19.3-26.7-36.3-53.1-13.4-87.5c8.3-12.7,17-18.5,30.8-15.5C307.9,1323.4,328.3,1329.3,348.9,1334.2
	L348.9,1334.2z"/>
<path class="st2" d="M132,953.4c-11.5-0.4-24.4,4.7-31.8,13.8c-18.9,23.1-21.9,6.2-27.6-8.9c-6.2-16.8-11.7-33.5-12.1-59.6
	c0.6-14.2,17.4-26.7,32.3-37.6c11.7-8.5,25.7-0.6,36.5,9.1c4.9,4.5,11.7,7,16.8,11.5c9.1,8.3,32.9,9.8,27.4,22.9
	C165.5,923.2,167,954.7,132,953.4L132,953.4z"/>
<path class="st2" d="M1722.2,498.7c-21-61.8-37.6-124.8-64.7-184c-2.3-5.3-4.9-10.6,4-14c29.1-11,63,7.6,68.8,39.1
	c2.5,13.2,3.6,27,3.8,40.3C1734.7,420,1728.4,459.2,1722.2,498.7L1722.2,498.7z"/>
<path d="M1693.7,579.9c16.3,12.7,30.9-5.3,50.6,1.1c-30.4,9.1-20.7,34.2-25.7,60.8C1708.3,617.3,1703.3,598.7,1693.7,579.9
	L1693.7,579.9z"/>
</svg>
